<?xml version="1.0" standalone="no"?>
<!DOCTYPE svg PUBLIC "-//W3C//DTD SVG 20010904//EN"
 "http://www.w3.org/TR/2001/REC-SVG-20010904/DTD/svg10.dtd">
<svg version="1.0" xmlns="http://www.w3.org/2000/svg"
 width="1024.000000pt" height="1024.000000pt" viewBox="0 0 1024.000000 1024.000000"
 preserveAspectRatio="xMidYMid meet">

<g transform="translate(0.000000,1024.000000) scale(0.100000,-0.100000)"
fill="#000000" stroke="none">
<path d="M9103 9926 c-114 -29 -121 -34 -994 -893 l-115 -114 -165 109 c-672
448 -1400 707 -2220 788 -196 19 -645 22 -829 5 -830 -77 -1562 -329 -2229
-768 -619 -407 -1150 -968 -1511 -1598 -413 -719 -631 -1524 -634 -2345 l-1
-255 795 -3 795 -2 1 207 c1 229 13 369 50 573 94 515 300 975 628 1400 145
188 419 451 631 606 449 329 1000 538 1564 594 240 24 616 8 866 -35 347 -60
749 -207 1038 -378 l69 -40 -460 -461 c-311 -311 -473 -481 -500 -523 -131
-205 -77 -404 138 -507 l65 -31 1615 -3 c1145 -2 1626 0 1653 8 47 14 102 62
128 111 19 38 19 69 17 1676 l-3 1638 -32 60 c-77 146 -218 217 -360 181z"/>
<path d="M8237 5133 c-8 -375 -48 -625 -153 -948 -342 -1052 -1214 -1853
-2294 -2106 -380 -89 -856 -104 -1251 -39 -367 61 -772 205 -1072 383 l-68 40
469 471 c444 445 471 475 506 546 20 41 40 99 46 128 23 125 -37 245 -161 319
-112 67 -9 63 -1754 63 -1124 0 -1592 -3 -1620 -11 -53 -15 -129 -91 -144
-144 -16 -57 -16 -3172 0 -3247 42 -198 213 -319 388 -274 123 31 138 45 807
709 166 165 306 298 310 296 5 -2 88 -56 184 -120 428 -284 874 -487 1367
-623 998 -275 2085 -215 3038 166 999 400 1833 1121 2371 2049 149 257 308
618 404 914 154 476 237 1032 228 1515 l-3 165 -796 3 -796 2 -6 -257z"/>
</g>
</svg>
